<?xml version="1.0" encoding="UTF-8" standalone="no"?>
<svg
   xmlns:dc="http://purl.org/dc/elements/1.1/"
   xmlns:cc="http://creativecommons.org/ns#"
   xmlns:rdf="http://www.w3.org/1999/02/22-rdf-syntax-ns#"
   xmlns:svg="http://www.w3.org/2000/svg"
   xmlns="http://www.w3.org/2000/svg"
   xmlns:sodipodi="http://sodipodi.sourceforge.net/DTD/sodipodi-0.dtd"
   xmlns:inkscape="http://www.inkscape.org/namespaces/inkscape"
   version="1.1"
   id="Capa_1"
   x="0px"
   y="0px"
   viewBox="0 0 969.164 969.164"
   style="enable-background:new 0 0 969.164 969.164;"
   xml:space="preserve"
   sodipodi:docname="Script_icon.svg"
   inkscape:version="0.92.1 r15371"><metadata
     id="metadata4527"><rdf:RDF><cc:Work
         rdf:about=""><dc:format>image/svg+xml</dc:format><dc:type
           rdf:resource="http://purl.org/dc/dcmitype/StillImage" /></cc:Work></rdf:RDF></metadata><defs
     id="defs4525" /><sodipodi:namedview
     pagecolor="#ffffff"
     bordercolor="#666666"
     borderopacity="1"
     objecttolerance="10"
     gridtolerance="10"
     guidetolerance="10"
     inkscape:pageopacity="0"
     inkscape:pageshadow="2"
     inkscape:window-width="1920"
     inkscape:window-height="1017"
     id="namedview4523"
     showgrid="false"
     inkscape:zoom="0.48701768"
     inkscape:cx="279.70901"
     inkscape:cy="543.00418"
     inkscape:window-x="1016"
     inkscape:window-y="-8"
     inkscape:window-maximized="1"
     inkscape:current-layer="Capa_1" /><path
     inkscape:connector-curvature="0"
     id="path4512"
     d="M 201.454,108.915 C 191.831,92.65 178.171,77.991 160.854,65.345 130.145,42.921 98.282,34.451 96.561,34.005 L 50.568,23.277 c -7.555,8.583 -12.799,20.319 -12.799,36.372 0,57.419 20.507,72.52 20.507,72.52 h 153.831 c -2.755,-8.141 -6.305,-15.904 -10.653,-23.254 z"
     style="fill:#7ea400;fill-opacity:1" /><path
     inkscape:connector-curvature="0"
     id="path4514"
     d="m 226.231,918.228 c 12.713,-13.265 19.433,-32.658 19.433,-56.082 v -35 h 35 477.508 C 756.493,816.099 755.579,804.196 755.579,791.4 755.579,618.731 904.9,372.917 904.9,176.9 904.899,19.803 755.578,0 755.578,0 H 220.279 104.846 c 0,0 116.768,28.242 143.774,132.169 3.531,13.587 5.547,28.451 5.547,44.732 0,196.017 -149.321,441.83 -149.321,614.5 0,21.877 2.605,43.935 9.325,64.813 5.274,16.386 13.149,32.064 24.154,45.366 6.627,8.01 14.383,15.117 23.097,20.802 8.555,5.581 17.698,10.425 28.093,11.19 14.488,1.065 26.865,-5.065 36.716,-15.344 z"
     style="fill:#7ea400;fill-opacity:1" /><path
     inkscape:connector-curvature="0"
     id="path4516"
     d="M 194.969,969.154" /><path
     inkscape:connector-curvature="0"
     id="path4518"
     d="m 280.663,862.146 c 0,35.851 -12.083,62.219 -28.71,79.815 -16.931,17.917 -56.984,27.193 -56.984,27.193 l 639.909,-0.02 h 17.261 c 0.589,0.02 1.176,0.03 1.768,0.03 19.363,0 39.95,-10.857 55.035,-31.219 13.396,-18.083 22.453,-43.662 22.453,-75.798 H 766.938 280.663 Z"
     style="fill:#7ea400;fill-opacity:1" /><path
     style="fill:none;stroke:#ffffff;stroke-width:20;stroke-linecap:butt;stroke-linejoin:miter;stroke-miterlimit:4;stroke-dasharray:none;stroke-opacity:1"
     d="m 322.37023,123.19881 h 404.5028"
     id="path5072"
     inkscape:connector-curvature="0"
     sodipodi:nodetypes="cc" /><path
     style="fill:none;stroke:#ffffff;stroke-width:20;stroke-linecap:butt;stroke-linejoin:miter;stroke-miterlimit:4;stroke-dasharray:none;stroke-opacity:1"
     d="M 322.37023,256.66419 H 726.87298"
     id="path5072-9"
     inkscape:connector-curvature="0"
     sodipodi:nodetypes="cc" /><path
     style="fill:none;stroke:#ffffff;stroke-width:20;stroke-linecap:butt;stroke-linejoin:miter;stroke-miterlimit:4;stroke-dasharray:none;stroke-opacity:1"
     d="m 322.37023,392.18289 h 404.5028"
     id="path5072-7"
     inkscape:connector-curvature="0"
     sodipodi:nodetypes="cc" /><path
     style="fill:none;stroke:#ffffff;stroke-width:20;stroke-linecap:butt;stroke-linejoin:miter;stroke-miterlimit:4;stroke-dasharray:none;stroke-opacity:1"
     d="M 322.37023,525.64827 H 726.87298"
     id="path5072-9-3"
     inkscape:connector-curvature="0"
     sodipodi:nodetypes="cc" /><path
     style="fill:none;stroke:#ffffff;stroke-width:20;stroke-linecap:butt;stroke-linejoin:miter;stroke-miterlimit:4;stroke-dasharray:none;stroke-opacity:1"
     d="M 322.37023,663.22028 H 726.87298"
     id="path5072-9-3-7"
     inkscape:connector-curvature="0"
     sodipodi:nodetypes="cc" /></svg>