<?xml version="1.0" encoding="UTF-8" standalone="no"?>
<!-- Created with Inkscape (http://www.inkscape.org/) -->

<svg
   xmlns:osb="http://www.openswatchbook.org/uri/2009/osb"
   xmlns:dc="http://purl.org/dc/elements/1.1/"
   xmlns:cc="http://creativecommons.org/ns#"
   xmlns:rdf="http://www.w3.org/1999/02/22-rdf-syntax-ns#"
   xmlns:svg="http://www.w3.org/2000/svg"
   xmlns="http://www.w3.org/2000/svg"
   xmlns:sodipodi="http://sodipodi.sourceforge.net/DTD/sodipodi-0.dtd"
   xmlns:inkscape="http://www.inkscape.org/namespaces/inkscape"
   width="567.17712mm"
   height="438.18259mm"
   viewBox="0 0 567.17713 438.18258"
   version="1.1"
   id="svg8"
   inkscape:version="0.92.1 r15371"
   sodipodi:docname="MP_generale.svg">
  <defs
     id="defs2">
    <marker
       inkscape:stockid="Arrow1Lend"
       orient="auto"
       refY="0"
       refX="0"
       id="Arrow1Lend"
       style="overflow:visible"
       inkscape:isstock="true">
      <path
         id="path4540"
         d="M 0,0 5,-5 -12.5,0 5,5 Z"
         style="fill:#000000;fill-opacity:1;fill-rule:evenodd;stroke:#000000;stroke-width:1.00000003pt;stroke-opacity:1"
         transform="matrix(-0.8,0,0,-0.8,-10,0)"
         inkscape:connector-curvature="0" />
    </marker>
    <linearGradient
       osb:paint="solid"
       id="linearGradient5955">
      <stop
         id="stop5953"
         offset="0"
         style="stop-color:#e46c0a;stop-opacity:1;" />
    </linearGradient>
    <marker
       inkscape:stockid="Arrow1Lend"
       orient="auto"
       refY="0"
       refX="0"
       id="Arrow1Lend-1"
       style="overflow:visible"
       inkscape:isstock="true">
      <path
         inkscape:connector-curvature="0"
         id="path4540-3"
         d="M 0,0 5,-5 -12.5,0 5,5 Z"
         style="fill:#000000;fill-opacity:1;fill-rule:evenodd;stroke:#000000;stroke-width:1.00000003pt;stroke-opacity:1"
         transform="matrix(-0.8,0,0,-0.8,-10,0)" />
    </marker>
    <marker
       inkscape:stockid="Arrow1Lend"
       orient="auto"
       refY="0"
       refX="0"
       id="Arrow1Lend-1-2"
       style="overflow:visible"
       inkscape:isstock="true">
      <path
         inkscape:connector-curvature="0"
         id="path4540-3-7"
         d="M 0,0 5,-5 -12.5,0 5,5 Z"
         style="fill:#000000;fill-opacity:1;fill-rule:evenodd;stroke:#000000;stroke-width:1.00000003pt;stroke-opacity:1"
         transform="matrix(-0.8,0,0,-0.8,-10,0)" />
    </marker>
    <marker
       inkscape:stockid="Arrow1Lend"
       orient="auto"
       refY="0"
       refX="0"
       id="Arrow1Lend-16"
       style="overflow:visible"
       inkscape:isstock="true">
      <path
         inkscape:connector-curvature="0"
         id="path4540-4"
         d="M 0,0 5,-5 -12.5,0 5,5 Z"
         style="fill:#000000;fill-opacity:1;fill-rule:evenodd;stroke:#000000;stroke-width:1.00000003pt;stroke-opacity:1"
         transform="matrix(-0.8,0,0,-0.8,-10,0)" />
    </marker>
    <marker
       inkscape:stockid="Arrow1Lend"
       orient="auto"
       refY="0"
       refX="0"
       id="Arrow1Lend-2"
       style="overflow:visible"
       inkscape:isstock="true">
      <path
         id="path4540-9"
         d="M 0,0 5,-5 -12.5,0 5,5 Z"
         style="fill:#000000;fill-opacity:1;fill-rule:evenodd;stroke:#000000;stroke-width:1.00000003pt;stroke-opacity:1"
         transform="matrix(-0.8,0,0,-0.8,-10,0)"
         inkscape:connector-curvature="0" />
    </marker>
    <marker
       inkscape:stockid="Arrow1Lend"
       orient="auto"
       refY="0"
       refX="0"
       id="Arrow1Lend-2-5"
       style="overflow:visible"
       inkscape:isstock="true">
      <path
         id="path4540-9-0"
         d="M 0,0 5,-5 -12.5,0 5,5 Z"
         style="fill:#000000;fill-opacity:1;fill-rule:evenodd;stroke:#000000;stroke-width:1.00000003pt;stroke-opacity:1"
         transform="matrix(-0.8,0,0,-0.8,-10,0)"
         inkscape:connector-curvature="0" />
    </marker>
    <marker
       inkscape:stockid="Arrow1Lend"
       orient="auto"
       refY="0"
       refX="0"
       id="Arrow1Lend-2-5-6"
       style="overflow:visible"
       inkscape:isstock="true">
      <path
         id="path4540-9-0-7"
         d="M 0,0 5,-5 -12.5,0 5,5 Z"
         style="fill:#000000;fill-opacity:1;fill-rule:evenodd;stroke:#000000;stroke-width:1.00000003pt;stroke-opacity:1"
         transform="matrix(-0.8,0,0,-0.8,-10,0)"
         inkscape:connector-curvature="0" />
    </marker>
  </defs>
  <sodipodi:namedview
     id="base"
     pagecolor="#ffffff"
     bordercolor="#666666"
     borderopacity="1.0"
     inkscape:pageopacity="0.0"
     inkscape:pageshadow="2"
     inkscape:zoom="0.35"
     inkscape:cx="1315.5308"
     inkscape:cy="815.70583"
     inkscape:document-units="mm"
     inkscape:current-layer="layer4"
     showgrid="false"
     inkscape:window-width="1920"
     inkscape:window-height="1017"
     inkscape:window-x="1358"
     inkscape:window-y="-8"
     inkscape:window-maximized="1"
     inkscape:snap-text-baseline="false"
     inkscape:object-nodes="false"
     inkscape:snap-others="false"
     inkscape:snap-nodes="false"
     inkscape:snap-global="false"
     fit-margin-top="0"
     fit-margin-left="0"
     fit-margin-right="0"
     fit-margin-bottom="0" />
  <metadata
     id="metadata5">
    <rdf:RDF>
      <cc:Work
         rdf:about="">
        <dc:format>image/svg+xml</dc:format>
        <dc:type
           rdf:resource="http://purl.org/dc/dcmitype/StillImage" />
        <dc:title />
      </cc:Work>
    </rdf:RDF>
  </metadata>
  <g
     inkscape:label="Livello 1"
     inkscape:groupmode="layer"
     id="layer1"
     style="display:inline"
     transform="translate(214.84703,3.2458931)">
    <path
       style="fill:none;stroke:#000000;stroke-width:3;stroke-linecap:butt;stroke-linejoin:miter;stroke-miterlimit:4;stroke-dasharray:none;stroke-opacity:1"
       d="m 24.2832,106.15742 91.2286,17.76059"
       id="path4556-4"
       inkscape:connector-curvature="0" />
    <path
       style="display:inline;fill:none;stroke:#000000;stroke-width:3;stroke-linecap:butt;stroke-linejoin:miter;stroke-miterlimit:4;stroke-dasharray:none;stroke-opacity:1"
       d="m 116.23005,125.60362 22.7216,79.82203"
       id="path4556-4-0"
       inkscape:connector-curvature="0" />
    <path
       style="display:inline;fill:none;stroke:#000000;stroke-width:3;stroke-linecap:butt;stroke-linejoin:miter;stroke-miterlimit:4;stroke-dasharray:none;stroke-opacity:1"
       d="M -36.261258,60.436756 22.899233,100.9457"
       id="path4556-4-7"
       inkscape:connector-curvature="0" />
    <path
       style="display:inline;fill:none;stroke:#000000;stroke-width:3;stroke-linecap:butt;stroke-linejoin:miter;stroke-miterlimit:4;stroke-dasharray:none;stroke-opacity:1"
       d="M -52.428878,118.76303 27.306994,97.40966"
       id="path4556-4-7-9"
       inkscape:connector-curvature="0" />
    <path
       style="display:inline;fill:none;stroke:#000000;stroke-width:3;stroke-linecap:butt;stroke-linejoin:miter;stroke-miterlimit:4;stroke-dasharray:none;stroke-opacity:1"
       d="m 116.48111,122.48964 98.88258,44.99219"
       id="path4556-4-0-8"
       inkscape:connector-curvature="0" />
    <path
       style="display:inline;fill:none;stroke:#000000;stroke-width:3;stroke-linecap:butt;stroke-linejoin:miter;stroke-miterlimit:4;stroke-dasharray:none;stroke-opacity:1"
       d="M 120.01387,122.7879 197.48559,68.445804"
       id="path4556-4-0-3"
       inkscape:connector-curvature="0" />
    <path
       style="display:inline;fill:#000000;fill-opacity:1;stroke:#000000;stroke-width:0.80677974;stroke-linecap:butt;stroke-linejoin:round;stroke-miterlimit:4;stroke-dasharray:none;stroke-dashoffset:2.36818743;stroke-opacity:1"
       id="path5494"
       d="m 30.309428,176.77263 c -0.04262,-1.4157 -0.106682,-2.8217 -0.0629,-4.25193 0.08897,-1.3074 0.156106,-2.60267 0.158546,-3.90434 -0.07296,-1.10165 -0.131035,-2.2 -0.106651,-3.32193 0.0066,-1.06151 0.153013,-2.05413 0.525765,-3.00654 0.512258,-0.93813 1.262599,-1.46766 1.928462,-2.1023 0.736071,-0.64991 1.463646,-1.32727 2.178338,-2.03636 0.624737,-0.60735 1.20804,-1.33468 1.718358,-2.16036 0.472638,-0.83904 0.670231,-1.85536 0.832314,-2.87524 0.163759,-1.16284 0.288399,-2.33159 0.412157,-3.49973 0.126496,-1.07711 -0.208019,-1.76613 -0.678804,-2.41754 -0.495492,-0.67461 -0.917741,-1.38057 -1.17946,-2.33299 -0.197825,-1.16571 -0.115418,-2.41006 -0.01993,-3.63082 0.155333,-1.47497 0.603501,-2.35784 1.44636,-3.14607 1.680056,-0.99422 3.906209,-3.58732 5.997622,-3.91341 0.437226,-0.0682 0.861858,-0.0649 1.299232,-0.16026 0.134846,-0.0585 0.269436,-0.11902 0.404537,-0.17543 0.390954,-0.16322 0.417458,-0.13823 0.794198,-0.38709 0.1307,-0.0863 0.514698,-0.37781 0.385037,-0.28714 -4.391887,3.07126 -5.76004,4.31508 -4.001034,2.74638 0.746663,-0.70857 1.402638,-1.44716 1.878145,-2.58932 0.409355,-0.99392 0.741861,-2.02528 0.971252,-3.12372 0.215603,-1.18442 0.350815,-2.38732 0.486065,-3.58635 0.124838,-1.37321 0.287431,-2.73261 0.605547,-4.06247 0.385891,-1.30533 1.118182,-2.20617 1.846009,-3.07093 0.736234,-0.82575 1.461553,-1.67239 2.173799,-2.54775 0.575242,-0.61032 1.050663,-1.32122 1.38142,-2.25672 0.292154,-1.03304 0.449594,-2.13115 0.522593,-3.21714 0.01266,-1.24054 -0.301593,-2.37403 -0.579659,-3.47971 -0.342442,-1.20038 -0.521104,-2.47855 -0.561133,-3.82023 -0.019,-1.13426 0.308289,-1.94445 0.837869,-2.76116 0.525052,-0.80133 1.104752,-1.509378 1.660865,-2.258232 0.662845,-0.791389 1.198488,-1.70166 1.563873,-2.842448 0.310823,-1.126653 0.451791,-2.29755 0.478926,-3.473239 -0.0308,-1.451557 -0.425283,-2.741464 -0.771449,-4.025329 -0.465937,-1.37794 -1.021964,-2.703408 -1.26262,-4.247506 -0.06802,-0.965614 0.199092,-2.085739 0.855337,-2.556731 1.709147,-1.226658 3.435903,-2.383467 5.153854,-3.5752 0.95827,-0.347085 1.925838,-0.451764 2.88093,-0.854383 1.740026,-0.714303 4.621126,-2.949511 -3.658841,2.704581 -0.09406,0.06424 0.348885,-0.288445 0.62562,-0.902431 0.402124,-1.049538 0.266052,-2.030368 0.06035,-3.045344 -0.269239,-0.952724 -0.779763,-1.628627 -1.182708,-2.432418 -0.459703,-0.976814 -0.77387,-2.072039 -0.591701,-3.352243 0.319092,-1.06645 1.01796,-1.632551 1.655949,-2.186814 0.545999,-0.49344 1.070848,-1.053548 1.566268,-1.666342 0.514327,-0.516679 0.889071,-1.188872 1.160577,-2.014352 0.410114,-1.276311 -0.05532,-2.291693 -0.538932,-3.206442 -0.428777,-0.790653 -0.928095,-1.654898 -0.590121,-2.788109 1.678942,-1.182451 3.356149,-2.371838 5.036828,-3.547355 0.838834,-0.586706 -0.446844,0.34857 0.474278,-0.222965 0.07841,-0.04865 0.297155,-0.25461 0.21993,-0.200828 -4.410865,3.071854 -6.007121,4.533934 -4.261107,2.956129 0.610291,-0.670651 1.301681,-1.109579 1.913236,-1.771646 0.633338,-0.799878 0.972878,-1.886325 1.22896,-3.018218 0.258481,-1.25507 0.675526,-2.404819 1.273796,-3.390347 0.674181,-0.800399 1.444515,-1.364296 2.190629,-1.96702 0,0 5.021344,-2.332936 5.021344,-2.332936 v 0 c -0.718515,0.645987 -1.476925,1.171057 -2.204242,1.794225 -0.672462,0.692054 -1.075639,1.826646 -1.344075,2.951114 -0.241556,1.23821 -0.5595,2.446284 -1.141776,3.456402 -0.549455,0.84335 -1.235072,1.259717 -1.890997,1.859491 -0.08852,0.103743 -0.166187,0.237056 -0.265553,0.311234 -1.673723,1.249425 -3.359344,2.454692 -5.046242,3.654 -0.159102,0.113115 -0.331481,0.160049 -0.496748,0.243142 -0.07776,0.0391 -0.308666,0.165603 -0.23428,0.110586 1.531105,-1.132428 3.071465,-2.229907 4.6072,-3.34486 -0.832377,-0.237337 0.151363,1.382192 0.256991,1.660074 0.531887,1.100249 1.126852,2.401873 0.758762,3.917105 -0.233574,0.948729 -0.536257,1.778736 -1.073146,2.438993 -0.545563,0.538978 -1.02371,1.241571 -1.576539,1.772682 -0.584205,0.496264 -1.241488,0.926516 -1.717464,1.656613 -0.492664,0.775637 0.09754,1.984441 0.372977,2.608484 0.469439,0.831644 0.997519,1.615544 1.260347,2.674052 0.227976,1.166921 0.420731,2.358567 0.08151,3.609838 -1.013895,3.637836 -4.139214,4.406365 -6.471137,5.344019 -0.958569,0.301612 -1.934958,0.431974 -2.872542,0.942042 1.466802,-1.05657 2.938229,-2.095517 4.400407,-3.169712 0.115384,-0.08477 -0.241277,0.121821 -0.358276,0.200143 -0.401885,0.269029 -0.66395,0.710939 -0.693067,1.374068 0.162661,1.524108 0.754897,2.808081 1.187027,4.14525 0.388768,1.364306 0.817336,2.741715 0.886413,4.2872 -0.02043,1.260689 -0.11847,2.522049 -0.407909,3.753244 -0.323583,1.2552 -0.791762,2.354098 -1.517998,3.198673 -0.545385,0.741082 -1.075877,1.495878 -1.647576,2.181966 -0.432697,0.703374 -0.921384,1.132126 -0.97206,2.15742 0.0057,1.26939 0.148784,2.47968 0.500881,3.59165 0.304588,1.20703 0.607616,2.44551 0.650162,3.78348 -0.03605,1.16731 -0.196246,2.34229 -0.445626,3.47972 -0.286845,1.07904 -0.688853,1.95903 -1.324209,2.66403 -0.758571,0.78754 -1.42475,1.78797 -2.204096,2.53548 -0.670515,0.82117 -1.416067,1.53846 -1.894036,2.6645 -0.416632,1.23636 -0.523385,2.5651 -0.659176,3.88787 -0.131797,1.22112 -0.241377,2.44759 -0.437824,3.65914 -0.210305,1.16719 -0.500373,2.29359 -0.967449,3.31891 -0.478916,1.43865 -0.887362,2.12202 -1.803555,2.95207 -2.054277,2.44863 -4.665094,4.05321 -7.164734,4.77025 -0.423847,0.053 -0.853825,0.0759 -1.276065,0.21678 -1.678869,0.56005 -4.738347,3.82607 3.570434,-2.73273 -0.796795,0.59754 -1.343614,0.9738 -1.567428,2.39678 -0.09937,1.08712 -0.208649,2.20694 -0.05046,3.25547 0.236672,0.85665 0.676096,1.44693 1.09886,2.08429 0.540231,0.85056 0.940963,1.75786 0.828826,3.07019 -0.127776,1.17914 -0.240832,2.36009 -0.388747,3.53678 -0.155864,1.12123 -0.335114,2.25392 -0.767903,3.25204 -0.467442,0.94887 -1.063305,1.69468 -1.674852,2.42282 -0.739821,0.65296 -1.438835,1.41935 -2.185254,2.05875 -0.47006,0.38988 -0.897605,0.91405 -1.376074,1.27543 -0.106055,0.0801 -0.224233,0.11309 -0.327115,0.20361 -0.09047,0.0796 -0.163909,0.20038 -0.245865,0.30056 -0.484941,0.69307 -0.609365,1.60029 -0.634986,2.53684 -0.04228,1.11609 -0.0033,2.21215 0.09171,3.30092 -0.01094,1.31951 -0.05168,2.62631 -0.177339,3.95137 -0.04988,1.39822 -0.05188,2.8 0.120879,4.14883 0,0 -4.927119,3.22344 -4.927119,3.22344 z"
       inkscape:connector-curvature="0" />
    <path
       style="display:inline;fill:none;stroke:#000000;stroke-width:1;stroke-linecap:butt;stroke-linejoin:miter;stroke-miterlimit:4;stroke-dasharray:none;stroke-opacity:1;marker-end:url(#Arrow1Lend)"
       d="m 105.79685,133.30303 c 0,0 -17.58602,19.45231 -43.470887,14.2605 -20.19035,-4.04963 -37.78146,-29.7495 -37.78146,-29.7495"
       id="path4535"
       inkscape:connector-curvature="0"
       sodipodi:nodetypes="csc" />
    <path
       style="display:inline;fill:none;stroke:#000000;stroke-width:3;stroke-linecap:butt;stroke-linejoin:miter;stroke-miterlimit:4;stroke-dasharray:none;stroke-opacity:1"
       d="m 19.210913,381.94947 54.82032,9.95725"
       id="path4556-4-03"
       inkscape:connector-curvature="0" />
    <text
       xml:space="preserve"
       style="font-style:normal;font-weight:normal;font-size:10.58333302px;line-height:1.25;font-family:sans-serif;letter-spacing:0px;word-spacing:0px;display:inline;fill:#000000;fill-opacity:1;stroke:none;stroke-width:0.26458332"
       x="75.788895"
       y="376.76553"
       id="text6516"><tspan
         sodipodi:role="line"
         id="tspan6514"
         x="75.788895"
         y="376.76553"
         style="stroke-width:0.26458332">$M _{B \rightarrow A}(a)$</tspan></text>
    <g
       style="display:inline"
       transform="matrix(0.18723159,0,0,0.21801296,54.841833,368.30105)"
       id="layer1-8-6-3"
       inkscape:label="Livello 1">
      <rect
         ry="2.1984103"
         y="71.610207"
         x="61.792385"
         height="78.108185"
         width="82.384499"
         id="rect5052-9-5"
         style="fill:#121213;fill-opacity:1;stroke:#000000;stroke-width:1.83151484;stroke-linecap:butt;stroke-linejoin:miter;stroke-miterlimit:1.60000002;stroke-dasharray:none;stroke-dashoffset:0;stroke-opacity:1" />
    </g>
  </g>
  <g
     inkscape:groupmode="layer"
     id="layer2"
     inkscape:label="Variables"
     style="display:inline"
     transform="translate(214.84703,3.2458931)">
    <ellipse
       style="display:inline;fill:#ffffff;fill-opacity:1;stroke:#000000;stroke-width:2.09725165;stroke-linecap:butt;stroke-linejoin:miter;stroke-miterlimit:1.60000002;stroke-dasharray:none;stroke-dashoffset:0;stroke-opacity:1"
       id="path4485"
       cx="25.123329"
       cy="102.96233"
       rx="15.387718"
       ry="14.28089" />
    <text
       xml:space="preserve"
       style="font-style:normal;font-weight:normal;font-size:10.58333302px;line-height:1.25;font-family:sans-serif;letter-spacing:0px;word-spacing:0px;display:inline;fill:#000000;fill-opacity:1;stroke:none;stroke-width:0.26458332"
       x="20.788692"
       y="105.14463"
       id="text4560"><tspan
         sodipodi:role="line"
         id="tspan4558"
         x="20.788692"
         y="105.14463"
         style="stroke-width:0.26458332">$A$</tspan></text>
    <ellipse
       style="display:inline;fill:#ffffff;fill-opacity:1;stroke:#000000;stroke-width:2.09725165;stroke-linecap:butt;stroke-linejoin:miter;stroke-miterlimit:1.60000002;stroke-dasharray:none;stroke-dashoffset:0;stroke-opacity:1"
       id="path4485-9-9"
       cx="116.52951"
       cy="123.80935"
       rx="15.387718"
       ry="14.280891" />
    <text
       xml:space="preserve"
       style="font-style:normal;font-weight:normal;font-size:10.58333302px;line-height:1.25;font-family:sans-serif;letter-spacing:0px;word-spacing:0px;display:inline;fill:#000000;fill-opacity:1;stroke:none;stroke-width:0.26458332"
       x="111.96507"
       y="127.22132"
       id="text4560-3-2"><tspan
         sodipodi:role="line"
         id="tspan4558-2-6"
         x="111.96507"
         y="127.22132"
         style="stroke-width:0.26458332">$B$</tspan></text>
  </g>
  <g
     inkscape:groupmode="layer"
     id="layer4"
     inkscape:label="Potenziali"
     style="display:inline"
     transform="translate(214.84703,3.2458931)">
    <g
       style="display:inline"
       transform="matrix(0.18723159,0,0,0.21801296,59.786411,91.874966)"
       id="layer1-8-6"
       inkscape:label="Livello 1">
      <rect
         ry="2.1984103"
         y="71.610207"
         x="61.792385"
         height="78.108185"
         width="82.384499"
         id="rect5052-9"
         style="fill:#121213;fill-opacity:1;stroke:#000000;stroke-width:1.83151484;stroke-linecap:butt;stroke-linejoin:miter;stroke-miterlimit:1.60000002;stroke-dasharray:none;stroke-dashoffset:0;stroke-opacity:1" />
    </g>
    <text
       id="text4560-3-3-3"
       y="98.784843"
       x="66.414879"
       style="font-style:normal;font-weight:normal;font-size:10.58333302px;line-height:1.25;font-family:sans-serif;letter-spacing:0px;word-spacing:0px;display:inline;fill:#000000;fill-opacity:1;stroke:none;stroke-width:0.26458332"
       xml:space="preserve"><tspan
         style="stroke-width:0.26458332"
         y="98.784843"
         x="66.414879"
         id="tspan4558-2-3-0"
         sodipodi:role="line">$\Phi_{AB}$</tspan></text>
    <text
       xml:space="preserve"
       style="font-style:normal;font-weight:normal;font-size:10.58333302px;line-height:1.25;font-family:sans-serif;letter-spacing:0px;word-spacing:0px;fill:#000000;fill-opacity:1;stroke:none;stroke-width:0.26458332"
       x="45.501858"
       y="160.75945"
       id="text4557"><tspan
         sodipodi:role="line"
         id="tspan4555"
         x="45.501858"
         y="160.75945"
         style="stroke-width:0.26458332">$M _{B \rightarrow A}$</tspan></text>
    <ellipse
       style="display:inline;fill:#ffffff;fill-opacity:1;stroke:#000000;stroke-width:2.09725165;stroke-linecap:butt;stroke-linejoin:miter;stroke-miterlimit:1.60000002;stroke-dasharray:none;stroke-dashoffset:0;stroke-opacity:1"
       id="path4485-9-9-0"
       cx="140.27962"
       cy="208.22951"
       rx="15.387718"
       ry="14.280891" />
    <g
       style="display:inline"
       transform="matrix(0.18723159,0,0,0.21801296,107.05625,134.60107)"
       id="layer1-8-6-8"
       inkscape:label="Livello 1">
      <rect
         ry="2.1984103"
         y="71.610207"
         x="61.792385"
         height="78.108185"
         width="82.384499"
         id="rect5052-9-0"
         style="fill:#121213;fill-opacity:1;stroke:#000000;stroke-width:1.83151484;stroke-linecap:butt;stroke-linejoin:miter;stroke-miterlimit:1.60000002;stroke-dasharray:none;stroke-dashoffset:0;stroke-opacity:1" />
    </g>
    <text
       id="text4560-3-3-3-8"
       y="174.11246"
       x="137.76584"
       style="font-style:normal;font-weight:normal;font-size:10.58333302px;line-height:1.25;font-family:sans-serif;letter-spacing:0px;word-spacing:0px;display:inline;fill:#000000;fill-opacity:1;stroke:none;stroke-width:0.26458332"
       xml:space="preserve"><tspan
         style="stroke-width:0.26458332"
         y="174.11246"
         x="137.76584"
         id="tspan4558-2-3-0-3"
         sodipodi:role="line">$\Phi_{AV1}$</tspan></text>
    <text
       xml:space="preserve"
       style="font-style:normal;font-weight:normal;font-size:10.58333302px;line-height:1.25;font-family:sans-serif;letter-spacing:0px;word-spacing:0px;display:inline;fill:#000000;fill-opacity:1;stroke:none;stroke-width:0.26458332"
       x="134.66795"
       y="210.35242"
       id="text4560-3-2-6"><tspan
         sodipodi:role="line"
         id="tspan4558-2-6-9"
         x="134.66795"
         y="210.35242"
         style="stroke-width:0.26458332">$V_1$</tspan></text>
    <g
       style="display:inline"
       transform="matrix(0.18723159,0,0,0.21801296,-27.457529,54.953485)"
       id="layer1-8-6-4"
       inkscape:label="Livello 1">
      <rect
         ry="2.1984103"
         y="71.610207"
         x="61.792385"
         height="78.108185"
         width="82.384499"
         id="rect5052-9-7"
         style="fill:#121213;fill-opacity:1;stroke:#000000;stroke-width:1.83151484;stroke-linecap:butt;stroke-linejoin:miter;stroke-miterlimit:1.60000002;stroke-dasharray:none;stroke-dashoffset:0;stroke-opacity:1" />
    </g>
    <g
       style="display:inline"
       transform="matrix(0.18723159,0,0,0.21801296,-32.209094,83.461916)"
       id="layer1-8-6-7"
       inkscape:label="Livello 1">
      <rect
         ry="2.1984103"
         y="71.610207"
         x="61.792385"
         height="78.108185"
         width="82.384499"
         id="rect5052-9-78"
         style="fill:#121213;fill-opacity:1;stroke:#000000;stroke-width:1.83151484;stroke-linecap:butt;stroke-linejoin:miter;stroke-miterlimit:1.60000002;stroke-dasharray:none;stroke-dashoffset:0;stroke-opacity:1" />
    </g>
    <ellipse
       style="display:inline;fill:#ffffff;fill-opacity:1;stroke:#000000;stroke-width:2.09725165;stroke-linecap:butt;stroke-linejoin:miter;stroke-miterlimit:1.60000002;stroke-dasharray:none;stroke-dashoffset:0;stroke-opacity:1"
       id="path4485-9-9-0-4"
       cx="216.58569"
       cy="166.25095"
       rx="15.387718"
       ry="14.280891" />
    <g
       style="display:inline"
       transform="matrix(0.18723159,0,0,0.21801296,153.61156,122.49835)"
       id="layer1-8-6-8-0"
       inkscape:label="Livello 1">
      <rect
         ry="2.1984103"
         y="71.610207"
         x="61.792385"
         height="78.108185"
         width="82.384499"
         id="rect5052-9-0-6"
         style="fill:#121213;fill-opacity:1;stroke:#000000;stroke-width:1.83151484;stroke-linecap:butt;stroke-linejoin:miter;stroke-miterlimit:1.60000002;stroke-dasharray:none;stroke-dashoffset:0;stroke-opacity:1" />
    </g>
    <text
       id="text4560-3-3-3-8-0"
       y="134.06175"
       x="167.20938"
       style="font-style:normal;font-weight:normal;font-size:10.58333302px;line-height:1.25;font-family:sans-serif;letter-spacing:0px;word-spacing:0px;display:inline;fill:#000000;fill-opacity:1;stroke:none;stroke-width:0.26458332"
       xml:space="preserve"><tspan
         style="stroke-width:0.26458332"
         y="134.06175"
         x="167.20938"
         id="tspan4558-2-3-0-3-8"
         sodipodi:role="line">$\Phi_{AV2}$</tspan></text>
    <text
       xml:space="preserve"
       style="font-style:normal;font-weight:normal;font-size:10.58333302px;line-height:1.25;font-family:sans-serif;letter-spacing:0px;word-spacing:0px;display:inline;fill:#000000;fill-opacity:1;stroke:none;stroke-width:0.26458332"
       x="210.97403"
       y="168.37387"
       id="text4560-3-2-6-0"><tspan
         sodipodi:role="line"
         id="tspan4558-2-6-9-8"
         x="210.97403"
         y="168.37387"
         style="stroke-width:0.26458332">$V_2$</tspan></text>
    <g
       style="display:inline"
       transform="matrix(0.18723159,0,0,0.21801296,137.14605,74.32499)"
       id="layer1-8-6-8-1"
       inkscape:label="Livello 1">
      <rect
         ry="2.1984103"
         y="71.610207"
         x="61.792385"
         height="78.108185"
         width="82.384499"
         id="rect5052-9-0-1"
         style="fill:#121213;fill-opacity:1;stroke:#000000;stroke-width:1.83151484;stroke-linecap:butt;stroke-linejoin:miter;stroke-miterlimit:1.60000002;stroke-dasharray:none;stroke-dashoffset:0;stroke-opacity:1" />
    </g>
    <text
       xml:space="preserve"
       style="font-style:normal;font-weight:normal;font-size:10.58333302px;line-height:1.25;font-family:sans-serif;letter-spacing:0px;word-spacing:0px;fill:#000000;fill-opacity:1;stroke:none;stroke-width:0.26458332"
       x="190.06415"
       y="147.88515"
       id="text4731"
       transform="rotate(-9.6036267)"><tspan
         sodipodi:role="line"
         id="tspan4729"
         x="190.06415"
         y="147.88515"
         style="stroke-width:0.26458332">$\vdots$</tspan></text>
    <text
       id="text4560-3-3-3-8-0-1"
       y="74.697487"
       x="133.98537"
       style="font-style:normal;font-weight:normal;font-size:10.58333302px;line-height:1.25;font-family:sans-serif;letter-spacing:0px;word-spacing:0px;display:inline;fill:#000000;fill-opacity:1;stroke:none;stroke-width:0.26458332"
       xml:space="preserve"><tspan
         style="stroke-width:0.26458332"
         y="74.697487"
         x="133.98537"
         id="tspan4558-2-3-0-3-8-7"
         sodipodi:role="line">$\Phi_{AVm}$</tspan></text>
    <path
       style="display:inline;fill:none;stroke:#000000;stroke-width:1.23346877;stroke-linecap:butt;stroke-linejoin:miter;stroke-miterlimit:4;stroke-dasharray:none;stroke-opacity:1;marker-end:url(#Arrow1Lend-2)"
       d="m 197.6958,56.961795 c 0,0 -37.52301,-24.769516 -63.81905,-5.757712 -20.51109,14.829324 -21.52933,56.229207 -21.52933,56.229207"
       id="path4535-7"
       inkscape:connector-curvature="0"
       sodipodi:nodetypes="csc" />
    <text
       xml:space="preserve"
       style="font-style:normal;font-weight:normal;font-size:10.58333302px;line-height:1.25;font-family:sans-serif;letter-spacing:0px;word-spacing:0px;display:inline;fill:#000000;fill-opacity:1;stroke:none;stroke-width:0.26458332"
       x="179.40761"
       y="44.934422"
       id="text4557-1"><tspan
         sodipodi:role="line"
         id="tspan4555-8"
         x="179.40761"
         y="44.934422"
         style="stroke-width:0.26458332">$M _{Vm \rightarrow B}$</tspan></text>
    <path
       style="display:inline;fill:none;stroke:#000000;stroke-width:1.11216199;stroke-linecap:butt;stroke-linejoin:miter;stroke-miterlimit:4;stroke-dasharray:none;stroke-opacity:1;marker-end:url(#Arrow1Lend-2-5)"
       d="m 224.27448,153.98921 c 0,0 -7.39706,-30.20497 -36.07532,-40.33093 -22.36923,-7.89833 -53.5205,7.72538 -53.5205,7.72538"
       id="path4535-7-4"
       inkscape:connector-curvature="0"
       sodipodi:nodetypes="csc" />
    <text
       xml:space="preserve"
       style="font-style:normal;font-weight:normal;font-size:10.58333302px;line-height:1.25;font-family:sans-serif;letter-spacing:0px;word-spacing:0px;display:inline;fill:#000000;fill-opacity:1;stroke:none;stroke-width:0.26458332"
       x="222.12097"
       y="136.05269"
       id="text4557-1-5"><tspan
         sodipodi:role="line"
         id="tspan4555-8-4"
         x="222.12097"
         y="136.05269"
         style="stroke-width:0.26458332">$M _{V2 \rightarrow B}$</tspan></text>
    <path
       style="display:inline;fill:none;stroke:#000000;stroke-width:1;stroke-linecap:butt;stroke-linejoin:miter;stroke-miterlimit:4;stroke-dasharray:none;stroke-opacity:1;marker-end:url(#Arrow1Lend-2-5-6)"
       d="m 125.99184,213.18347 c 0,0 -21.53283,-8.16335 -27.158083,-32.20027 -4.387737,-18.74894 8.877673,-42.96419 8.877673,-42.96419"
       id="path4535-7-4-3"
       inkscape:connector-curvature="0"
       sodipodi:nodetypes="csc" />
    <text
       xml:space="preserve"
       style="font-style:normal;font-weight:normal;font-size:10.58333302px;line-height:1.25;font-family:sans-serif;letter-spacing:0px;word-spacing:0px;display:inline;fill:#000000;fill-opacity:1;stroke:none;stroke-width:0.26458332"
       x="43.61541"
       y="200.13905"
       id="text4557-1-5-7"><tspan
         sodipodi:role="line"
         id="tspan4555-8-4-1"
         x="43.61541"
         y="200.13905"
         style="stroke-width:0.26458332">$M _{V1 \rightarrow B}$</tspan></text>
    <ellipse
       style="display:inline;fill:#ffffff;fill-opacity:1;stroke:#000000;stroke-width:2.09725165;stroke-linecap:butt;stroke-linejoin:miter;stroke-miterlimit:1.60000002;stroke-dasharray:none;stroke-dashoffset:0;stroke-opacity:1"
       id="path4485-9-9-0-5"
       cx="200.83813"
       cy="69.910736"
       rx="15.387718"
       ry="14.280891" />
    <ellipse
       style="fill:#ffffff;fill-opacity:1;stroke:#000000;stroke-width:1.25476968;stroke-linecap:butt;stroke-linejoin:round;stroke-miterlimit:4;stroke-dasharray:none;stroke-dashoffset:0;stroke-opacity:1"
       id="path4576"
       cx="-41.104012"
       cy="126.98875"
       rx="79.611908"
       ry="71.345573"
       transform="matrix(0.84512086,0.53457528,-0.55367728,0.83273133,0,0)" />
    <text
       xml:space="preserve"
       style="font-style:normal;font-weight:normal;font-size:10.58333302px;line-height:1.25;font-family:sans-serif;letter-spacing:0px;word-spacing:0px;fill:#000000;fill-opacity:1;stroke:none;stroke-width:0.26458332"
       x="-211.20108"
       y="4.7949595"
       id="text4580"><tspan
         sodipodi:role="line"
         id="tspan4578"
         x="-211.20108"
         y="4.7949595"
         style="stroke-width:0.26458332">Remaining structure of the graph</tspan></text>
    <path
       style="display:inline;fill:none;stroke:#000000;stroke-width:3;stroke-linecap:butt;stroke-linejoin:miter;stroke-miterlimit:4;stroke-dasharray:none;stroke-opacity:1"
       d="m -40.945899,337.89445 59.16048,40.50895"
       id="path4556-4-7-4"
       inkscape:connector-curvature="0" />
    <path
       style="display:inline;fill:none;stroke:#000000;stroke-width:3;stroke-linecap:butt;stroke-linejoin:miter;stroke-miterlimit:4;stroke-dasharray:none;stroke-opacity:1"
       d="m -57.113529,396.22073 79.73588,-21.35337"
       id="path4556-4-7-9-6"
       inkscape:connector-curvature="0" />
    <g
       style="display:inline"
       transform="matrix(0.18723159,0,0,0.21801296,-32.142179,332.41118)"
       id="layer1-8-6-4-9"
       inkscape:label="Livello 1">
      <rect
         ry="2.1984103"
         y="71.610207"
         x="61.792385"
         height="78.108185"
         width="82.384499"
         id="rect5052-9-7-2"
         style="fill:#121213;fill-opacity:1;stroke:#000000;stroke-width:1.83151484;stroke-linecap:butt;stroke-linejoin:miter;stroke-miterlimit:1.60000002;stroke-dasharray:none;stroke-dashoffset:0;stroke-opacity:1" />
    </g>
    <g
       style="display:inline"
       transform="matrix(0.18723159,0,0,0.21801296,-36.893739,360.91962)"
       id="layer1-8-6-7-1"
       inkscape:label="Livello 1">
      <rect
         ry="2.1984103"
         y="71.610207"
         x="61.792385"
         height="78.108185"
         width="82.384499"
         id="rect5052-9-78-9"
         style="fill:#121213;fill-opacity:1;stroke:#000000;stroke-width:1.83151484;stroke-linecap:butt;stroke-linejoin:miter;stroke-miterlimit:1.60000002;stroke-dasharray:none;stroke-dashoffset:0;stroke-opacity:1" />
    </g>
    <ellipse
       style="display:inline;fill:#ffffff;fill-opacity:1;stroke:#000000;stroke-width:1.25476968;stroke-linecap:butt;stroke-linejoin:round;stroke-miterlimit:4;stroke-dasharray:none;stroke-dashoffset:0;stroke-opacity:1"
       id="path4576-2"
       cx="108.65514"
       cy="364.03952"
       rx="79.6119"
       ry="71.345573"
       transform="matrix(0.84512086,0.53457528,-0.55367727,0.83273134,0,0)" />
    <text
       xml:space="preserve"
       style="font-style:normal;font-weight:normal;font-size:10.58333302px;line-height:1.25;font-family:sans-serif;letter-spacing:0px;word-spacing:0px;display:inline;fill:#000000;fill-opacity:1;stroke:none;stroke-width:0.26458332"
       x="-215.88573"
       y="282.25214"
       id="text4580-0"><tspan
         sodipodi:role="line"
         id="tspan4578-4"
         x="-215.88573"
         y="282.25214"
         style="stroke-width:0.26458332">Remaining structure of the graph</tspan></text>
    <ellipse
       style="display:inline;fill:#ffffff;fill-opacity:1;stroke:#000000;stroke-width:2.09725165;stroke-linecap:butt;stroke-linejoin:miter;stroke-miterlimit:1.60000002;stroke-dasharray:none;stroke-dashoffset:0;stroke-opacity:1"
       id="path4485-3"
       cx="20.178751"
       cy="379.3891"
       rx="15.387718"
       ry="14.280891" />
    <text
       xml:space="preserve"
       style="font-style:normal;font-weight:normal;font-size:10.58333302px;line-height:1.25;font-family:sans-serif;letter-spacing:0px;word-spacing:0px;display:inline;fill:#000000;fill-opacity:1;stroke:none;stroke-width:0.26458332"
       x="15.84411"
       y="381.57138"
       id="text4560-1"><tspan
         sodipodi:role="line"
         id="tspan4558-7"
         x="15.84411"
         y="381.57138"
         style="stroke-width:0.26458332">$A$</tspan></text>
    <text
       xml:space="preserve"
       style="font-style:normal;font-weight:normal;font-size:10.58333302px;line-height:1.25;font-family:sans-serif;letter-spacing:0px;word-spacing:0px;display:inline;fill:#000000;fill-opacity:1;stroke:none;stroke-width:0.26458332"
       x="196.51747"
       y="71.642159"
       id="text4560-3-2-6-0-9"><tspan
         sodipodi:role="line"
         id="tspan4558-2-6-9-8-3"
         x="196.51747"
         y="71.642159"
         style="stroke-width:0.26458332">$V_m$</tspan></text>
  </g>
</svg>
