<?xml version="1.0" encoding="UTF-8" standalone="no"?>
<!-- Created with Inkscape (http://www.inkscape.org/) -->

<svg
   xmlns:dc="http://purl.org/dc/elements/1.1/"
   xmlns:cc="http://creativecommons.org/ns#"
   xmlns:rdf="http://www.w3.org/1999/02/22-rdf-syntax-ns#"
   xmlns:svg="http://www.w3.org/2000/svg"
   xmlns="http://www.w3.org/2000/svg"
   xmlns:sodipodi="http://sodipodi.sourceforge.net/DTD/sodipodi-0.dtd"
   xmlns:inkscape="http://www.inkscape.org/namespaces/inkscape"
   width="299.31125mm"
   height="256.42499mm"
   viewBox="0 0 299.31124 256.42499"
   version="1.1"
   id="svg8"
   inkscape:version="0.92.1 r15371"
   sodipodi:docname="X.svg">
  <defs
     id="defs2">
    <marker
       inkscape:stockid="Arrow1Lend"
       orient="auto"
       refY="0"
       refX="0"
       id="Arrow1Lend"
       style="overflow:visible"
       inkscape:isstock="true">
      <path
         id="path4496"
         d="M 0,0 5,-5 -12.5,0 5,5 Z"
         style="fill:#000000;fill-opacity:1;fill-rule:evenodd;stroke:#000000;stroke-width:1.00000003pt;stroke-opacity:1"
         transform="matrix(-0.8,0,0,-0.8,-10,0)"
         inkscape:connector-curvature="0" />
    </marker>
  </defs>
  <sodipodi:namedview
     id="base"
     pagecolor="#ffffff"
     bordercolor="#666666"
     borderopacity="1.0"
     inkscape:pageopacity="0.0"
     inkscape:pageshadow="2"
     inkscape:zoom="0.35"
     inkscape:cx="1186.2628"
     inkscape:cy="587.56484"
     inkscape:document-units="mm"
     inkscape:current-layer="layer1"
     showgrid="false"
     fit-margin-top="0"
     fit-margin-left="0"
     fit-margin-right="0"
     fit-margin-bottom="0"
     inkscape:window-width="1920"
     inkscape:window-height="1017"
     inkscape:window-x="1016"
     inkscape:window-y="-8"
     inkscape:window-maximized="1" />
  <metadata
     id="metadata5">
    <rdf:RDF>
      <cc:Work
         rdf:about="">
        <dc:format>image/svg+xml</dc:format>
        <dc:type
           rdf:resource="http://purl.org/dc/dcmitype/StillImage" />
        <dc:title></dc:title>
      </cc:Work>
    </rdf:RDF>
  </metadata>
  <g
     inkscape:label="Livello 1"
     inkscape:groupmode="layer"
     id="layer1"
     transform="translate(0.13602121,0.76335882)">
    <path
       id="path4512"
       d="M 43.172301,28.053735 C 40.626216,23.750287 37.012007,19.87176 32.430218,16.525839 24.305128,10.592822 15.87471,8.3518015 15.419362,8.2337973 L 3.2503808,5.3953474 c -1.998927,2.2709187 -3.38640201,5.3760686 -3.38640201,9.6234246 0,15.19211 5.42581031,19.187583 5.42581031,19.187583 H 45.990907 c -0.728927,-2.153973 -1.668198,-4.207933 -2.818606,-6.15262 z"
       inkscape:connector-curvature="0"
       style="fill:#7ea400;fill-opacity:1;stroke-width:0.26458332" />
    <path
       id="path4514"
       d="m 49.727882,242.18446 c 3.363648,-3.50969 5.141648,-8.64076 5.141648,-14.83836 v -9.26042 H 64.129947 190.4706 c -0.44423,-2.92285 -0.68606,-6.07218 -0.68606,-9.45779 0,-45.68534 39.50785,-110.723627 39.50785,-162.586458 C 229.29212,4.4761849 189.78427,-0.76335882 189.78427,-0.76335882 H 48.153082 17.611435 c 0,0 30.894866,7.47236242 38.040204,34.96971382 0.934243,3.594894 1.467643,7.527661 1.467643,11.835342 0,51.86283 -39.507847,116.900853 -39.507847,162.586453 0,5.78829 0.689239,11.62447 2.467239,17.14844 1.395413,4.33546 3.479007,8.4836 6.390746,12.00309 1.753394,2.11931 3.805502,3.99971 6.111081,5.50386 2.263511,1.47664 4.682596,2.75828 7.43294,2.96069 3.833283,0.28178 7.108031,-1.34011 9.714441,-4.05977 z"
       inkscape:connector-curvature="0"
       style="fill:#7ea400;fill-opacity:1;stroke-width:0.26458332" />
    <path
       id="path4516"
       d="M 41.456478,255.65863"
       inkscape:connector-curvature="0"
       style="stroke-width:0.26458332" />
    <path
       id="path4518"
       d="m 64.129682,227.3461 c 0,9.48558 -3.19696,16.46211 -7.596187,21.11772 -4.479661,4.74054 -15.077017,7.19481 -15.077017,7.19481 l 169.309252,-0.005 h 4.56698 c 0.15583,0.005 0.31115,0.008 0.46778,0.008 5.12313,0 10.5701,-2.87258 14.56134,-8.26003 3.54436,-4.78446 5.94069,-11.55223 5.94069,-20.05488 H 192.78994 64.129682 Z"
       inkscape:connector-curvature="0"
       style="fill:#7ea400;fill-opacity:1;stroke-width:0.26458332" />
    <text
       xml:space="preserve"
       style="font-style:normal;font-weight:normal;font-size:86.53787231px;line-height:1.25;font-family:sans-serif;letter-spacing:0px;word-spacing:0px;fill:#ffffff;fill-opacity:1;stroke:none;stroke-width:2.16344666"
       x="115.22217"
       y="109.69466"
       id="text4489-7"
       transform="scale(0.73625157,1.3582314)"><tspan
         sodipodi:role="line"
         id="tspan4487-7"
         x="115.22217"
         y="109.69466"
         style="fill:#ffffff;stroke-width:2.16344666">&lt;/&gt;</tspan></text>
    <g
       id="g4556"
       transform="matrix(1.3461539,0,0,1.3589744,-97.454892,-50.324124)">
      <rect
         ry="4.9136906"
         y="152.92447"
         x="235.67523"
         height="9.8273811"
         width="58.964283"
         id="rect4506"
         style="opacity:1;vector-effect:none;fill:#7ea400;fill-opacity:1;fill-rule:nonzero;stroke:none;stroke-width:0.53160954;stroke-linecap:butt;stroke-linejoin:miter;stroke-miterlimit:4;stroke-dasharray:none;stroke-dashoffset:0;stroke-opacity:1" />
      <rect
         transform="rotate(90)"
         ry="4.9136906"
         y="-270.46152"
         x="127.55342"
         height="9.8273811"
         width="58.964283"
         id="rect4506-7"
         style="opacity:1;vector-effect:none;fill:#7ea400;fill-opacity:1;fill-rule:nonzero;stroke:none;stroke-width:0.53160954;stroke-linecap:butt;stroke-linejoin:miter;stroke-miterlimit:4;stroke-dasharray:none;stroke-dashoffset:0;stroke-opacity:1" />
      <rect
         transform="rotate(-45.525637)"
         ry="4.9136906"
         y="295.11322"
         x="44.229565"
         height="9.8273811"
         width="58.964283"
         id="rect4506-0"
         style="opacity:1;vector-effect:none;fill:#7ea400;fill-opacity:1;fill-rule:nonzero;stroke:none;stroke-width:0.53160954;stroke-linecap:butt;stroke-linejoin:miter;stroke-miterlimit:4;stroke-dasharray:none;stroke-dashoffset:0;stroke-opacity:1" />
      <rect
         transform="rotate(44.474363)"
         ry="4.9136906"
         y="-79.015846"
         x="269.74219"
         height="9.8273811"
         width="58.964283"
         id="rect4506-7-3"
         style="opacity:1;vector-effect:none;fill:#7ea400;fill-opacity:1;fill-rule:nonzero;stroke:none;stroke-width:0.53160954;stroke-linecap:butt;stroke-linejoin:miter;stroke-miterlimit:4;stroke-dasharray:none;stroke-dashoffset:0;stroke-opacity:1" />
    </g>
  </g>
</svg>
